<svg width="7900" height="2807" viewBox="0 0 7900 2807" fill="none" xmlns="http://www.w3.org/2000/svg">
<path d="M0 521.3C0 233.394 233.372 0 521.251 0H2285.49C2573.36 0 2806.74 233.394 2806.74 521.3V2285.7C2806.74 2573.61 2573.36 2807 2285.49 2807H521.251C233.372 2807 0 2573.61 0 2285.7V521.3Z" fill="white"/>
<path d="M2543.1 1659.89L1402.63 2385.19V934.581L2543.1 1659.89Z" fill="#BEBEBE"/>
<path d="M263.031 1659.89L1403.5 934.58V2385.19L263.031 1659.89Z" fill="#BEBEBE"/>
<path d="M2543.1 1397.11L1402.63 2122.41V671.801L2543.1 1397.11Z" fill="#7F7F7F" fill-opacity="0.75"/>
<path d="M263.031 1397.11L1403.5 671.801V2122.41L263.031 1397.11Z" fill="#7F7F7F" fill-opacity="0.75"/>
<path d="M2543.96 1146.76L1403.5 1872.06V421.451L2543.96 1146.76Z" fill="#4A4A4A"/>
<path d="M263.031 1146.76L1403.5 421.451V1872.06L263.031 1146.76Z" fill="#4A4A4A"/>
<path d="M3592.79 1473.56L3465.92 1612.18V1836.18H3276.4V733.429H3465.92V1408.55L3749.41 1031.05H3980.44L3730.62 1349.81L4014.89 1836.18H3801.88L3592.79 1473.56Z" fill="white"/>
<path d="M4134.71 732.646H4324.23V1836.18H4134.71V732.646Z" fill="white"/>
<path d="M4868.5 1860.46C4814.21 1860.46 4763.83 1849.49 4717.36 1827.56C4670.9 1805.11 4630.69 1774.57 4596.76 1735.93C4563.35 1697.29 4536.98 1652.13 4517.66 1600.43C4498.87 1548.22 4489.47 1492.61 4489.47 1433.61C4489.47 1374.61 4499.13 1319.26 4518.45 1267.57C4537.76 1215.88 4564.13 1170.72 4597.54 1132.08C4631.48 1093.44 4671.42 1062.9 4717.36 1040.44C4763.83 1017.99 4813.95 1006.77 4867.72 1006.77C4934.03 1006.77 4992.5 1020.86 5043.14 1049.06C5093.79 1077.26 5132.16 1116.68 5158.26 1167.32V1031.05H5338.38V1836.18H5158.26V1700.68C5131.64 1751.33 5093 1790.75 5042.36 1818.95C4992.24 1846.62 4934.29 1860.46 4868.5 1860.46ZM4913.93 1685.02C4946.82 1685.02 4977.62 1678.76 5006.34 1666.22C5035.57 1653.17 5060.63 1635.42 5081.52 1612.97C5102.92 1590.51 5119.63 1563.89 5131.64 1533.08C5144.17 1502.27 5150.43 1469.12 5150.43 1433.61C5150.43 1398.63 5144.17 1366 5131.64 1335.71C5119.63 1304.91 5102.92 1278.28 5081.52 1255.83C5060.11 1232.85 5035.05 1214.84 5006.34 1201.78C4977.62 1188.73 4946.82 1182.2 4913.93 1182.2C4881.56 1182.2 4851.01 1188.21 4822.3 1200.22C4793.59 1212.23 4768.53 1229.2 4747.12 1251.13C4725.71 1273.06 4708.75 1299.68 4696.22 1331.01C4683.69 1361.82 4677.42 1396.02 4677.42 1433.61C4677.42 1472.77 4683.69 1508.02 4696.22 1539.34C4709.27 1570.15 4726.5 1596.52 4747.9 1618.45C4769.31 1639.86 4794.37 1656.3 4823.08 1667.79C4851.8 1679.28 4882.08 1685.02 4913.93 1685.02Z" fill="white"/>
<path d="M5561.57 1031.05H5743.26V1176.72C5762.06 1132.34 5789.47 1097.1 5825.49 1070.99C5862.04 1044.36 5906.67 1031.05 5959.4 1031.05H6045.55V1193.95H5969.59C5937.22 1193.95 5907.46 1199.96 5880.31 1211.97C5853.68 1223.45 5830.71 1240.68 5811.39 1263.66C5792.6 1286.11 5777.72 1314.04 5766.75 1347.46C5756.31 1380.88 5751.09 1418.99 5751.09 1461.81V1836.18H5561.57V1031.05Z" fill="white"/>
<path d="M6108.98 1954.44H6242.9C6264.3 1954.44 6282.58 1951.83 6297.72 1946.61C6312.86 1941.91 6325.91 1934.08 6336.87 1923.11C6348.36 1912.67 6358.54 1899.36 6367.42 1883.17C6376.29 1866.98 6384.91 1847.93 6393.26 1826L6402.66 1798.59L6094.1 1031.05H6293.8L6483.32 1518.2L6503.68 1601.22L6524.82 1518.98L6711.21 1031.83L6913.26 1031.05L6599.22 1818.17C6575.73 1878.21 6552.23 1927.29 6528.74 1965.41C6505.77 2003.52 6480.45 2033.29 6452.78 2054.69C6425.63 2076.1 6395.35 2090.72 6361.93 2098.55C6328.52 2106.91 6289.36 2111.08 6244.46 2111.08H6108.98V1954.44Z" fill="white"/>
<path d="M7369.82 1836.18C7339.54 1836.18 7308.48 1832.79 7276.63 1826C7245.3 1818.69 7216.59 1804.33 7190.48 1782.92C7164.9 1760.99 7143.76 1729.92 7127.05 1689.72C7110.87 1649.52 7102.77 1596.26 7102.77 1529.95V1193.95H6935.97V1031.05H7102.77V795.302L7292.29 793.736V1031.05H7533.5V1193.95H7292.29V1538.56C7292.29 1566.76 7295.42 1589.99 7301.69 1608.27C7308.48 1626.02 7317.09 1640.38 7327.53 1651.34C7338.5 1661.79 7351.03 1669.1 7365.12 1673.27C7379.22 1676.93 7393.84 1678.76 7408.98 1678.76H7533.5V1836.18H7369.82Z" fill="white"/>
<path d="M7780.18 905.734C7761.91 905.734 7745.46 902.862 7730.84 897.118C7716.75 891.375 7704.48 883.804 7694.04 874.406C7684.12 864.485 7676.55 852.998 7671.33 839.945C7666.11 826.369 7663.49 812.01 7663.49 796.868C7663.49 782.249 7666.11 768.412 7671.33 755.359C7676.55 742.305 7684.12 730.818 7694.04 720.898C7704.48 710.977 7716.75 703.145 7730.84 697.402C7745.46 691.658 7762.17 688.786 7780.96 688.786C7799.76 688.786 7816.47 691.658 7831.08 697.402C7846.23 703.145 7858.76 710.977 7868.67 720.898C7879.12 730.818 7886.95 742.305 7892.17 755.359C7897.39 768.412 7900 782.249 7900 796.868C7900 812.01 7897.39 826.369 7892.17 839.945C7886.95 852.998 7879.12 864.485 7868.67 874.406C7858.76 883.804 7846.23 891.375 7831.08 897.118C7816.47 902.862 7799.5 905.734 7780.18 905.734ZM7686.99 1031.05H7876.51V1836.18H7686.99V1031.05Z" fill="white"/>
</svg>
