<svg xmlns="http://www.w3.org/2000/svg" viewBox="0 0 2372 842" preserveAspectRatio="xMidYMid meet"><path fill="#fefefe" d="M126 0c2.5-.125 2.5-.125 5 0v1c-2.5.125-2.5.125-5 0zm35.346-.267 7.025-.014q7.601-.015 15.203-.011c7.536.003 15.072-.006 22.608-.016 14.247-.02 28.494-.025 42.74-.026a66887 66887 0 0 0 42.54-.017l2.392-.001q33.273-.019 66.546-.02h2.532l20.348.002q39.67 0 79.339-.042a81394 81394 0 0 1 98.772-.045h2.37c12.547 0 25.095-.013 37.643-.03q18.934-.026 37.87-.006 11.227.012 22.455-.016 7.523-.018 15.047.005 4.272.013 8.542-.007c12.821-.06 24.716.863 37.248 3.653 3.915.845 7.438.97 11.434.858 2.434.586 2.434.586 4.438 1.375l2.058.773L742 7v2c1.707.365 1.707.365 3.938.563 11.93 2.2 22.712 9.94 32.5 16.75l2.205 1.524 2.04 1.464 1.8 1.286c1.75 1.63 2.472 3.283 3.517 5.413q1.996.514 4 1c1.375 1.625 1.375 1.625 3 4 2.687 3.43 5.048 6.429 8.813 8.688C806 51 806 51 806.5 52.812L807 55c1.484 2.165 3.08 4.206 5 6h2c.364 1.325.691 2.66 1 4 1.003 1.908 1.003 1.908 2.258 3.8l1.386 2.188 1.481 2.325c18.924 30.439 24.037 62.293 24.009 97.655l.007 6.722q.007 7.289.005 14.577 0 10.839.008 21.679.013 20.49.013 40.98a122885 122885 0 0 0 .01 43.076 205621 205621 0 0 1 .008 78.393v7.335q0 38.037.02 76.074a149578 149578 0 0 1 .024 94.674v2.27q0 18.048.015 36.095.013 18.155.003 36.311-.006 10.77.007 21.537.008 8.067-.004 16.132-.003 3.245.005 6.489c.04 16.465-.367 33.065-4.38 49.125l-.64 2.606c-4.582 17.728-12.344 35.258-23.106 50.125-1.195 1.94-1.582 3.64-2.129 5.832l-1.812.875c-3.746 1.926-5.515 5.612-7.188 9.375-1 1.75-1 1.75-2.812 2.625-4.105 2.111-6.566 6.277-9.25 9.938-2.137 2.412-2.95 2.49-5.938 3.187l-.892 1.856c-1.277 2.47-2.415 3.35-4.713 4.878l-2.21 1.48-2.372 1.536-2.433 1.593c-5.092 3.29-10.247 6.437-15.567 9.345l-1.777.989C753 830.802 749.53 831.5 745 832c-2.16 1.117-3.252 2.252-5 4-3.21 1.344-5.623 2.008-9.117 1.932-3.733-.048-7.111.657-10.743 1.466-12.768 2.829-25.092 3.161-38.121 3.096q-3.525.005-7.049.015-7.604.016-15.207-.005c-7.538-.02-15.076-.017-22.615-.009-12.69.013-25.38.007-38.07-.01a26823 26823 0 0 0-49.607-.027c-29.8.002-59.6-.018-89.4-.049a73367 73367 0 0 0-84.439-.038h-17.76q-33.205 0-66.41-.02l-2.387-.001-9.503-.006q-16.497-.01-32.994-.01-21.258-.001-42.516-.029-11.23-.016-22.46-.012-7.515.002-15.029-.016-4.272-.01-8.544-.005c-11.542.016-22.83-.19-34.245-2.014a89 89 0 0 0-3.998-.476l-2.226-.222-2.058-.183L114 839v-2c-2.053-.396-2.053-.396-4.5-.5-2.531-.156-2.531-.156-4.5-.5v-2h-6l-2-2a551 551 0 0 0-4-1c-2.116-.94-4.18-1.905-6.25-2.937l-1.68-.803c-1.39-.69-2.735-1.469-4.07-2.26v-2l-2.668-.41c-3.72-.659-5.616-1.817-8.644-4.028l-2.614-1.87C65 815 65 815 64 813l-3-1-1-3-1.937-.437L56 808l-2-4-1.738-.324c-3.24-.968-5.15-3.128-7.45-5.489l-1.365-1.33C40.882 794.27 39.791 792.49 39 789a91 91 0 0 0-4-4.875C10.153 754.733.157 717.577.365 679.675q-.008-3.509-.024-7.016-.025-7.549-.004-15.097c.019-7.484.009-14.968-.006-22.452-.027-13.376-.024-26.751-.01-40.126q.02-17.56.01-35.117l-.001-2.362-.005-9.493C.31 518.386.323 488.76.35 459.133q.035-39.399-.002-78.799a62111 62111 0 0 1-.017-98.2l.001-2.357Q.34 262.24.32 244.7q-.024-19.962.016-39.922.024-11.144-.003-22.287-.016-7.474.017-14.95c.012-2.825.014-5.65-.002-8.474-.194-38.29 11.938-72.33 35.516-102.317 1.94-2.496 3.695-4.766 4.989-7.645 1.477-2.707 3.35-4.608 5.523-6.792l2.336-2.387C50.984 38.014 52.176 37.566 55 37l1-2 1-2a93 93 0 0 1 4-1l1-3 3-1 1.688-1.75c3.408-3.317 7.652-6.66 12.374-7.707 2.392-.67 3.247-1.76 4.938-3.543 4.31-2.696 7.84-4.322 13-4V9c2.313-.562 2.313-.562 5-1 2.857-.757 2.857-.757 4.313-2.062C108.803 4.554 111.199 5 114 5V3c1.502-.377 1.502-.377 3.56-.56l2.226-.222L122 2a236 236 0 0 0 3.46-.526c11.95-1.784 23.826-1.76 35.886-1.741M713 0c2.5-.125 2.5-.125 5 0v1c-2.5.125-2.5.125-5 0zM122 1l4 1Zm596 0 4 1Zm5 1 3 1Zm4 1 3 1ZM111 4l3 1Zm-9 3 3 1Zm640 1 3 1Zm3 1 2 1ZM95 10l2 1Zm-16 8 2 1ZM4 113l1 4Zm836 3 1 4ZM3 117l1 4Zm838 3h1c.125 2.5.125 2.5 0 5h-1c-.125-2.5-.125-2.5 0-5M2 121h1c.125 2.5.125 2.5 0 5H2c-.125-2.5-.125-2.5 0-5m840 4h1c.125 2.5.125 2.5 0 5h-1c-.125-2.5-.125-2.5 0-5M1 126h1c.125 2.5.125 2.5 0 5H1c-.125-2.5-.125-2.5 0-5m842 4h1c.125 3 .125 3 0 6h-1c-.125-3-.125-3 0-6m0 576h1c.125 3 .125 3 0 6h-1c-.125-3-.125-3 0-6M1 711h1c.125 2.5.125 2.5 0 5H1c-.125-2.5-.125-2.5 0-5m841 1h1c.125 2.5.125 2.5 0 5h-1c-.125-2.5-.125-2.5 0-5M2 716h1c.125 2.5.125 2.5 0 5H2c-.125-2.5-.125-2.5 0-5m839 1h1c.125 2.5.125 2.5 0 5h-1c-.125-2.5-.125-2.5 0-5M3 721l1 4Zm837 1 1 4ZM4 725l1 4Zm75 98 2 1Zm16 8 2 1Zm652 0 2 1Zm-2 1 2 1Zm-3 1 3 1Zm-640 1 3 1Zm9 3 3 1Zm616 1 3 1Zm-4 1 3 1Zm-601 1 4 1Zm596 0 4 1Zm-592 1c2.5-.125 2.5-.125 5 0v1c-2.5.125-2.5.125-5 0zm587 0c2.5-.125 2.5-.125 5 0v1c-2.5.125-2.5.125-5 0z"/><path fill="#4a4a4a" d="M425 128c2.422 1.268 2.422 1.268 4.965 2.887l2.889 1.822 3.084 1.978q1.61 1.023 3.224 2.043 4.132 2.62 8.253 5.258 3.639 2.32 7.284 4.63a6162 6162 0 0 1 13.583 8.648c4.57 2.916 9.144 5.824 13.718 8.734l5.5 3.5 2.75 1.75 143 91 5.493 3.496q6.933 4.41 13.862 8.824A7086 7086 0 0 0 678.5 289a7717 7717 0 0 1 28.702 18.218q8.26 5.258 16.52 10.514a8205 8205 0 0 1 17.157 10.936q2.77 1.768 5.539 3.539a362 362 0 0 0 15.755 9.514L764 343v2c-1.256.983-1.256.983-3.059 2.04l-2.069 1.233-2.31 1.352c-7.69 4.599-15.276 9.341-22.812 14.188l-8.048 5.169a3907 3907 0 0 1-15.89 10.143l-2.713 1.726-5.397 3.431q-5.475 3.48-10.946 6.964l-8.244 5.246-11.117 7.078a7721 7721 0 0 1-28.219 17.896c-8.808 5.559-17.593 11.156-26.378 16.752Q609.9 442.61 603 447l-5.5 3.5-123.752 78.751-5.48 3.488q-7.024 4.47-14.05 8.937l-2.878 1.832q-2.805 1.783-5.615 3.56c-4.049 2.567-8.077 5.15-12.041 7.846l-1.946 1.307a183 183 0 0 0-3.441 2.38c-2.268 1.523-3.884 2.39-6.64 2.446-4.023-1.585-7.486-3.873-11.094-6.235l-5.133-3.3-2.7-1.749c-3.59-2.319-7.198-4.61-10.806-6.9a6323 6323 0 0 1-8.319-5.293 40119 40119 0 0 0-24.855-15.82l-121-77-5.493-3.496q-6.933-4.41-13.862-8.824A7086 7086 0 0 0 192.5 416a7717 7717 0 0 1-28.702-18.218Q156.9 393.39 150 389l-8.25-5.25-8.25-5.25-8.232-5.239q-8.464-5.385-16.93-10.768a3462 3462 0 0 1-5.6-3.57c-4.069-2.6-8.143-5.182-12.265-7.696l-2.028-1.253a238 238 0 0 0-3.675-2.223C83.19 346.77 83.19 346.77 81 345c1.126-3.38 1.518-3.603 4.438-5.312l2.184-1.303L90 337q2.494-1.488 4.984-2.98l2.557-1.53c3.619-2.193 7.167-4.488 10.709-6.803a2027 2027 0 0 1 19.438-12.5l2.807-1.784 5.674-3.605Q143.087 303.402 150 299l8.25-5.25 52.25-33.25 2.75-1.75 5.493-3.496q6.933-4.41 13.862-8.824a7721 7721 0 0 1 28.219-17.896c8.808-5.559 17.593-11.156 26.378-16.752Q294.099 207.39 301 203l5.5-3.5 57.75-36.75 5.496-3.498q6.909-4.399 13.824-8.787l2.786-1.77a3473 3473 0 0 1 5.497-3.482 555 555 0 0 0 13.8-9.018l2.755-1.847a419 419 0 0 0 5.16-3.526l2.342-1.568 2.036-1.396c2.789-1.165 4.198-.776 7.054.142"/><path fill="#bebebe" d="M138 381c6.74 2.99 12.926 7.42 19.105 11.414a2255 2255 0 0 0 4.888 3.15l5.062 3.255a3455 3455 0 0 0 16.32 10.431l2.735 1.74a6598 6598 0 0 0 19.714 12.476c8.809 5.56 17.593 11.156 26.378 16.752Q239.1 444.61 246 449l8.25 5.25L372.5 529.5l2.753 1.752 5.468 3.48a10967 10967 0 0 0 17.207 10.936l5.578 3.539 2.576 1.637 2.487 1.57a127 127 0 0 1 4.89 3.36l2.365 1.695 2.077 1.545c2.8 1.316 4.188.915 7.099-.014 1.975-.919 1.975-.919 3.828-2.117l2.146-1.322 2.276-1.436 2.41-1.497c6.654-4.152 13.24-8.41 19.813-12.69 5.05-3.285 10.13-6.52 15.214-9.75l2.808-1.785 5.674-3.605Q486.087 520.402 493 516l8.25-5.25 52.25-33.25 2.75-1.75 5.493-3.496q6.933-4.41 13.862-8.824a6443 6443 0 0 1 25.707-16.305A3479 3479 0 0 0 623.5 433a3803 3803 0 0 1 24.475-15.567 4738 4738 0 0 0 17.837-11.308l2.753-1.752q6.484-4.125 12.958-8.263l4.509-2.88q2.826-1.804 5.649-3.612a586 586 0 0 1 5.052-3.189c1.445-.91 2.874-1.849 4.278-2.82 1.817-1.199 1.817-1.199 4.989-2.609 2.457.973 2.457.973 4.813 3.063q1.418 1.174 2.855 2.328l1.587 1.287c3.28 2.486 6.838 4.53 10.37 6.635a635 635 0 0 1 20.432 12.825c3.134 2.052 6.27 4.08 9.486 6.003l1.596.965c1.378.829 2.763 1.643 4.15 2.457L763 418c-1.227 3.68-2.217 4.037-5.469 6.012l-2.884 1.773-1.552.938c-2.167 1.31-4.322 2.639-6.478 3.967l-3.4 2.09c-5.724 3.517-11.39 7.123-17.045 10.75q-2.353 1.508-4.707 3.014A924 924 0 0 0 704 458c2.714 2.88 5.391 5.045 8.762 7.11l2.856 1.764 1.514.925c2.683 1.64 5.355 3.299 8.028 4.955l1.686 1.042c6.3 3.9 12.542 7.892 18.779 11.892l3.175 2.032q2.877 1.844 5.748 3.7 2.235 1.442 4.49 2.852c1.354.858 2.666 1.784 3.962 2.728v2c-1.67 1.29-1.67 1.29-4.04 2.766l-2.663 1.675-2.922 1.809q-1.505.942-3.008 1.887-3.129 1.964-6.263 3.92c-4.72 2.95-9.41 5.949-14.104 8.943l-5.5 3.5-2.75 1.75-74.25 47.25-2.75 1.75-5.493 3.496q-6.933 4.41-13.862 8.824a7721 7721 0 0 1-28.219 17.896c-8.808 5.559-17.593 11.156-26.378 16.752Q563.901 625.61 557 630l-5.5 3.5-77 49-8.23 5.237q-8.494 5.404-16.98 10.822a2930 2930 0 0 1-8.325 5.277 359 359 0 0 0-9.024 5.89l-1.796 1.187a389 389 0 0 0-4.489 3.024c-2.846 1.14-4.145 1.156-6.959-.033-3.72-1.982-7.2-4.308-10.697-6.654l-5.383-3.55-2.805-1.855c-4.533-2.974-9.109-5.88-13.687-8.783l-2.77-1.758-5.573-3.538Q370.89 683.388 364 679l-5.5-3.5-123.75-78.75-5.493-3.496q-6.933-4.41-13.862-8.824A7086 7086 0 0 0 189.5 568a7717 7717 0 0 1-28.702-18.218Q153.9 545.39 147 541l-5.5-3.5-2.75-1.75c-41.637-26.496-41.637-26.496-44.13-28.097-1.902-1.2-3.81-2.367-5.744-3.513l-1.559-.942a562 562 0 0 0-4.371-2.604L81 499c1.227-3.68 2.217-4.037 5.469-6.012l2.884-1.773 1.552-.938c2.167-1.31 4.322-2.639 6.478-3.967l3.4-2.09c5.724-3.517 11.39-7.123 17.045-10.75q2.353-1.508 4.707-3.014A924 924 0 0 0 140 459c-2.714-2.88-5.391-5.045-8.762-7.11l-2.856-1.764-1.514-.925c-2.683-1.64-5.355-3.299-8.028-4.955l-1.686-1.042c-6.3-3.9-12.542-7.892-18.779-11.892L95.2 429.28q-2.877-1.844-5.748-3.7a365 365 0 0 0-4.49-2.852c-1.354-.858-2.666-1.784-3.962-2.728v-2c1.67-1.29 1.67-1.29 4.04-2.766l2.666-1.677 2.919-1.807q1.494-.935 2.986-1.874a2599 2599 0 0 1 6.24-3.906c4.942-3.088 9.858-6.216 14.774-9.345l2.777-1.765c10.823-6.251 10.823-6.251 20.598-13.86"/><path fill="#8d8d8d" d="M138 381c6.74 2.99 12.926 7.42 19.105 11.414a2255 2255 0 0 0 4.888 3.15l5.062 3.255a3455 3455 0 0 0 16.32 10.431l2.735 1.74a6598 6598 0 0 0 19.714 12.476c8.809 5.56 17.593 11.156 26.378 16.752Q239.1 444.61 246 449l8.25 5.25L372.5 529.5l2.753 1.752 5.468 3.48a10967 10967 0 0 0 17.207 10.936l5.578 3.539 2.576 1.637 2.487 1.57a127 127 0 0 1 4.89 3.36l2.365 1.695 2.077 1.545c2.8 1.316 4.188.915 7.099-.014 1.975-.919 1.975-.919 3.828-2.117l2.146-1.322 2.276-1.436 2.41-1.497c6.654-4.152 13.24-8.41 19.813-12.69 5.05-3.285 10.13-6.52 15.214-9.75l2.808-1.785 5.674-3.605Q486.087 520.402 493 516l8.25-5.25 52.25-33.25 2.75-1.75 5.493-3.496q6.933-4.41 13.862-8.824a6443 6443 0 0 1 25.707-16.305A3479 3479 0 0 0 623.5 433a3803 3803 0 0 1 24.475-15.567 4738 4738 0 0 0 17.837-11.308l2.753-1.752q6.484-4.125 12.958-8.263l4.509-2.88q2.826-1.804 5.649-3.612a586 586 0 0 1 5.052-3.189c1.445-.91 2.874-1.849 4.278-2.82 1.817-1.199 1.817-1.199 4.989-2.609 2.457.973 2.457.973 4.813 3.063q1.418 1.174 2.855 2.328l1.587 1.287c3.28 2.486 6.838 4.53 10.37 6.635a635 635 0 0 1 20.432 12.825c3.134 2.052 6.27 4.08 9.486 6.003l1.596.965c1.378.829 2.763 1.643 4.15 2.457L763 418c-1.227 3.68-2.217 4.037-5.469 6.012-.95.584-1.901 1.17-2.881 1.771l-1.552.938c-2.181 1.32-4.351 2.657-6.522 3.994q-1.707 1.052-3.417 2.1c-5.977 3.673-11.883 7.454-17.784 11.248l-7.827 5.022a4572 4572 0 0 1-15.736 10.04l-8.11 5.157Q686.85 468.64 680 473l-5.5 3.5-2.75 1.75-30.25 19.25-2.75 1.75-5.493 3.496q-6.933 4.41-13.862 8.824A7099 7099 0 0 1 593.5 528c-15.303 9.655-30.555 19.39-45.79 29.152a3663 3663 0 0 1-22.686 14.415c-8.76 5.522-17.492 11.088-26.226 16.65Q491.901 592.612 485 597l-5.5 3.5-13.754 8.752-5.46 3.476a16854 16854 0 0 1-17.36 11.038l-5.696 3.617-2.605 1.656-2.441 1.54c-1.893 1.231-3.686 2.536-5.497 3.882C424 636 424 636 421.637 635.772c-2.876-.842-4.968-1.982-7.495-3.588l-2.843-1.792-3.048-1.955-3.2-2.027c-2.798-1.772-5.59-3.555-8.38-5.34a3702 3702 0 0 0-4.884-3.12 6581 6581 0 0 1-15.688-10.04 4847 4847 0 0 0-20-12.762l-5.396-3.43Q343.85 587.36 337 583l-5.5-3.5-35.75-22.75-5.493-3.496q-6.933-4.41-13.862-8.824a6443 6443 0 0 0-25.707-16.305 3734 3734 0 0 1-23.808-15.163q-11.4-7.307-22.855-14.529c-8.76-5.522-17.493-11.087-26.227-16.65Q170.9 477.388 164 473l-5.5-3.5-2.75-1.75-30.25-19.25-2.754-1.752-5.46-3.476a16854 16854 0 0 0-17.36-11.038l-5.696-3.617a1664 1664 0 0 1-5.027-3.208 379 379 0 0 0-4.156-2.623c-1.383-.877-2.722-1.823-4.047-2.786v-2c1.67-1.29 1.67-1.29 4.04-2.766l2.666-1.677 2.919-1.807q1.494-.935 2.986-1.874a2599 2599 0 0 1 6.24-3.906c4.942-3.088 9.858-6.216 14.774-9.345l2.777-1.765c10.823-6.251 10.823-6.251 20.598-13.86"/><path fill="#fefefe" d="M1445 300c1.497-.101 3-.13 4.5-.125l2.531-.008L1454 300v1c-1.497.101-3 .13-4.5.125l-2.531.008L1445 301zm24 0a79 79 0 0 1 5-.125l2.813-.008L1479 300v1a79 79 0 0 1-5 .125l-2.812.008L1469 301zm-29 1c2.5-.125 2.5-.125 5 0v1c-2.5.125-2.5.125-5 0zm53.61 3.523c1.502.3 3.013.561 4.53.766 5.404.86 9.877 3.057 14.672 5.586l1.96 1.03c3.635 1.99 6.376 4.037 9.228 7.095l2.125 1c1.875 1 1.875 1 2.7 2.773 1.484 2.811 3.563 4.715 5.862 6.852 4.917 4.603 8.558 9.794 12.313 15.375l-.781-3.305q-.47-2.284-.934-4.57l-.524-2.145c-.52-2.7-.626-5.225-.698-7.98l-.09-2.077c-.084-5.717.285-11.36 4.027-15.923 8.122-4.478 18.231-4.375 27.29-4.434l1.943-.03c8.79-.103 17.88.172 25.767 4.464 8.781 8.906 7.61 25.127 7.642 36.897-.032 3.314-.11 6.627-.2 9.94a363 363 0 0 0-.082 14.191l.079 6.128c.157 12.818-.024 25.616-.32 38.43-.245 11.018-.202 22.004.051 33.02.294 12.768.411 25.517.242 38.288l-.052 4.078-.026 2.027c-.048 4.732.034 9.453.162 14.184.813 32.694.813 32.694-5.608 42.902-5.906 5.99-15.798 6.26-23.792 6.4-1.936.002-3.87-.02-5.806-.051l-1.95-.013c-8.457-.087-17.784-.254-25.34-4.421-4.184-5.103-4.212-11.677-3.937-18l.086-3.272c.169-2.382.57-4.537 1.136-6.853l.479-2.355c.38-1.847.802-3.685 1.236-5.52l-.937 1.875c-1.871 3.741-4.074 6.225-7.063 9.125q-3.13 3.057-6.25 6.125l-1.64 1.59-1.563 1.543-1.411 1.38c-1.38 1.486-1.38 1.486-2.136 4.362-4.646 3.932-8.97 6.381-15 7v2l-6 1v2h-5v2c-2.012.379-2.012.379-4.687.563-5.216.356-5.216.356-10.313 1.437v2c-2.08.225-4.027.303-6.113.3l-1.93.017c-2.09.012-4.18.006-6.27-.005l-2.14-.002c-11.43-.03-22.347-.938-33.547-3.31l-3.191-.61A331 331 0 0 1 1425 554l-2.758-.43L1420 553v-2l-2.027.14c-4.263-.201-6.979-2.159-10.535-4.39-.66-.396-1.32-.791-1.999-1.2-3.6-2.206-6.522-4.462-9.439-7.55l-2.062-.937C1392 536 1392 536 1390.75 533.813c-2.157-3.468-4.768-6.048-7.687-8.875l-1.592-1.565a434 434 0 0 0-6.725-6.494c-1.797-1.934-2.632-3.5-3.746-5.879a229 229 0 0 0-2.102-3.406c-21.007-33.853-26.793-73.048-18.394-111.927 3.67-15.332 10.233-29.886 18.832-43.065 2.02-3.157 3.48-6.05 4.664-9.602l1.777-.887c2.942-1.473 4.61-3.47 6.785-5.925l2.317-2.583c2.177-2.542 2.177-2.542 3.77-5.394C1390 326 1390 326 1392.062 325.437L1394 325l.903-1.873c1.254-2.432 2.27-3.19 4.581-4.6l2.086-1.287 2.18-1.303 2.133-1.314c11.135-6.799 11.135-6.799 17.117-6.623v-2c3.014-1.644 5.444-2.096 8.813-2H1435v-2c1.836-.16 1.836-.16 4.375-.062 3.54.074 6.922-.017 10.438-.438 14.66-1.57 29.391.134 43.796 3.023M1450 360v2c-1.337.422-2.675.838-4.02 1.234-3.422 1.323-6.423 3.374-9.515 5.329C1434 370 1434 370 1431.46 370.953c-11.011 4.684-17.367 18.685-21.694 29.124-3.913 9.82-5.141 19.7-5.08 30.236l.015 3.04c.259 16.45 4.863 32.621 15.298 45.647a62 62 0 0 0 4 2 70 70 0 0 1 1 4c1.953 1.687 3.49 2.163 6 3l1 3c1.946.59 1.946.59 4 1 2 2 2 2 3 4l2.75.375c3.326.64 4.216 1.413 6.645 3.574 11.16 7.305 29.105 6.158 41.668 3.801l1.874-.331c4.286-.893 6.819-2.546 10.063-5.419 3.01-1.693 5.482-2.899 8.875-3.562L1513 494v-2l1.938-.437L1517 491l1-3 1.75-.312c3.49-1.067 5.179-3.785 7.25-6.688l1-2 2-2 1-2 1.875-1.762c4.04-4.255 6-9.842 8.125-15.238l.66-1.667c6.782-18.123 5.364-40.47-2.238-58.099-4.344-9.473-9.478-17.618-18.422-23.234l-.937-2.062c-1.497-2.73-3.424-3.017-6.254-4.083-1.952-.923-3.085-1.917-4.559-3.48-2.512-2.652-4.096-3.163-7.625-3.812-2.732-.586-5.1-1.37-7.625-2.563l-1-2c-12.202-3.356-31.758-4.363-43 3m29-59c2.5-.125 2.5-.125 5 0v1c-2.5.125-2.5.125-5 0zm6 1 4 1Zm-53 1 3 1Zm57 0 4 1Zm4 1 3 1Zm-72 3 2 1Zm125 2h1c.09 2.56.115 5.095.098 7.656l-.005 2.354c-.005 2.497-.018 4.993-.03 7.49q-.008 2.529-.014 5.059-.018 6.22-.049 12.441c-2.515-3.288-2.18-6.313-2.012-10.293l.069-2.14q.075-2.233.164-4.465c.092-2.291.166-4.582.238-6.873q.075-2.168.154-4.334l.07-2.093c.067-1.603.186-3.203.317-4.802m-14 17c2.063.875 2.063.875 4 2l-1 2zm-154 12v3Zm92 18a95 95 0 0 1 5.5-.125l3.094-.008L1481 356v1c-1.831.101-3.666.13-5.5.125l-3.094.008L1470 357zm-8 1c1.531-.133 1.531-.133 3.5-.125l1.969-.008L1469 357v1c-1.531.133-1.531.133-3.5.125l-1.969.008L1462 358zm19 0c1.531-.133 1.531-.133 3.5-.125l1.969-.008L1488 357v1c-1.531.133-1.531.133-3.5.125l-1.969.008L1481 358zm-24 1c2.5-.125 2.5-.125 5 0v1c-2.5.125-2.5.125-5 0zm31 0c2.5-.125 2.5-.125 5 0v1c-2.5.125-2.5.125-5 0zm-34 1 3 1Zm-3 1 2 1Zm53 3 2 1Zm-82 17v3Zm-73 14 1 4Zm-1 4h1c.125 2.5.125 2.5 0 5h-1c-.125-2.5-.125-2.5 0-5m-1 6h1c.125 3 .125 3 0 6h-1c-.125-3-.125-3 0-6m61 4h1c.125 2.5.125 2.5 0 5h-1c-.125-2.5-.125-2.5 0-5m-62 2h1c.101 1.497.13 3 .125 4.5l.008 2.531L1347 419h-1c-.101-1.497-.13-3-.125-4.5l-.008-2.531zm196 2h1c.125 3 .125 3 0 6h-1c-.125-3-.125-3 0-6m-135 1h1c.125 3 .125 3 0 6h-1c-.125-3-.125-3 0-6m136 5h1c.103 1.748.13 3.5.133 5.25l.004 3.281-.012 3.469.012 3.469-.004 3.281-.004 3.047L1544 442h-1c-.103-1.748-.13-3.5-.133-5.25l-.004-3.281.012-3.469-.012-3.469.004-3.281.004-3.047zm-137 1h1c.103 1.601.13 3.208.133 4.813l.004 3.007-.012 3.18.012 3.18-.008 5.8L1407 441h-1a77 77 0 0 1-.133-4.812l-.004-3.008.012-3.18-.012-3.18.008-5.8zm1 23h1c.125 3 .125 3 0 6h-1c-.125-3-.125-3 0-6m135 1h1c.125 2.5.125 2.5 0 5h-1c-.125-2.5-.125-2.5 0-5m-134 5 1 4Zm133 0 1 4Zm-194 3h1c.125 3 .125 3 0 6h-1c-.125-3-.125-3 0-6m1 6h1c.125 2.5.125 2.5 0 5h-1c-.125-2.5-.125-2.5 0-5m1 5 1 4Zm2 8 1 4Zm159 23 2 1Zm-71 1 2 1Zm11 5 3 1Zm3 1 4 1Zm40 0 4 1Zm-36 1 4 1Zm32 0 4 1Zm-28 1c1.531-.133 1.531-.133 3.5-.125l1.969-.008L1468 502v1c-1.531.133-1.531.133-3.5.125l-1.969.008L1461 503zm21 0c1.531-.133 1.531-.133 3.5-.125l1.969-.008L1489 502v1c-1.531.133-1.531.133-3.5.125l-1.969.008L1482 503zm-13 1c2.18-.102 4.32-.139 6.5-.125l1.879-.012c1.54.004 3.082.065 4.621.137v1c-2.18.102-4.32.139-6.5.125l-1.879.012A104 104 0 0 1 1469 504zm77 13h1c.103 2.561.14 5.095.133 7.656l.003 2.354q0 2.472-.006 4.944c-.005 2.535 0 5.07.007 7.605q0 2.393-.004 4.785l.006 2.32c-.008 1.779-.067 3.558-.139 5.336h-1a155 155 0 0 1-.352-7.148l-.07-2.206q-.071-2.318-.136-4.635c-.067-2.369-.144-4.737-.223-7.105q-.068-2.246-.133-4.492l-.072-2.156c-.129-5.028-.129-5.028.986-7.258m-165 8 6 5c-3 0-3 0-4.687-1.375C1381 526 1381 526 1381 524m156 4c0 3 0 3-1.023 4.422-1.272 1.25-2.623 2.418-3.977 3.578l-2-1zm-24 19 2 1Zm-2 1 2 1Zm-4 2 2 1Zm-89 1 2 1Zm87 0 2 1Zm-5 2 2 1Zm-75 1 3 1Zm3 1 3 1Zm66 0 3 1Zm-63 1 4 1Zm59 0 4 1Zm-55 1 4 1Zm50 0c2.5-.125 2.5-.125 5 0v1c-2.5.125-2.5.125-5 0zm-46 1c3-.125 3-.125 6 0v1c-3 .125-3 .125-6 0zm6 1c1.497-.101 3-.13 4.5-.125l2.531-.008L1454 559v1c-1.497.101-3 .13-4.5.125l-2.531.008L1445 560zm25 0c1.497-.101 3-.13 4.5-.125l2.531-.008L1479 559v1c-1.497.101-3 .13-4.5.125l-2.531.008L1470 560zm-16 1c2.511-.102 4.989-.139 7.5-.125l2.168-.012c1.778.004 3.556.065 5.332.137v1c-2.511.102-4.989.139-7.5.125l-2.168.012A138 138 0 0 1 1454 561z"/><path fill="#fefefe" d="M1000.058 212.3c13.607-1.746 28.958-.391 40.942 6.7 6.113 5.667 6.472 13.368 6.795 21.248.108 6.407-.264 12.75-.712 19.138-.333 5.603-.34 11.205-.382 16.816-.113 9.43-.428 18.83-.898 28.247-.484 9.7-.846 19.392-1.044 29.102l-.037 1.81q-.092 4.496-.176 8.99c-.478 24.9-1.38 49.773-2.546 74.649q3.38-4.338 6.758-8.677l1.926-2.47c4.149-5.33 8.227-10.696 12.191-16.166A1128 1128 0 0 1 1078 371.5a1313 1313 0 0 0 16.698-22.318c4.489-6.115 9.069-12.157 13.677-18.182 6.333-8.274 6.333-8.274 12.562-16.625l1.778-2.414c1.45-2.031 1.45-2.031 2.285-4.961 2.268-.295 4.268-.378 6.54-.34l2.069-.002c2.267.002 4.534.026 6.801.049q2.352.009 4.704.013c4.135.011 8.27.04 12.404.074 4.216.03 8.432.044 12.648.06q12.417.05 24.834.146c-.692 3.934-1.667 6.36-4 9.625-1.812 2.553-3.002 4.382-4 7.375l-1.777.828c-3.1 1.634-4.763 4.15-6.786 6.922l-2.632 3.516-1.38 1.85c-2.846 3.764-5.807 7.442-8.757 11.125-3.182 4.014-6.03 7.847-7.668 12.759l-1.863.91c-2.722 1.389-3.69 2.969-5.325 5.527l-1.542 2.372c-1.4 2.247-1.4 2.247-2.27 5.191l-1.938.937c-3.405 1.755-3.896 4.565-5.062 8.063l-1.863.91c-2.722 1.389-3.69 2.969-5.325 5.527l-1.542 2.372c-1.4 2.247-1.4 2.247-2.27 5.191l-4 2c-1.971 1.71-1.971 1.71-3 4 1.31 4.144 3.485 7.861 5.625 11.625l1.162 2.055c4.192 7.366 8.534 14.643 12.868 21.925 6.41 10.774 12.698 21.615 18.943 32.485l1.684 2.917a699 699 0 0 1 3.635 6.411l1.892 3.336 1.708 3.045L1171 490h2q.519 2.496 1 5c1.164 2.444 1.164 2.444 2.668 4.895l1.688 2.863 1.831 3.054q.938 1.58 1.875 3.16 1.46 2.468 2.925 4.932a829 829 0 0 1 6.986 12.014l2.855 4.972a850 850 0 0 1 1.836 3.222c.85 1.498 1.71 2.99 2.57 4.482l1.476 2.584L1202 543h2c.562 2.25.562 2.25 1 5a278 278 0 0 0 1 4c-8.337.171-16.671.271-25.01.282a566 566 0 0 0-11.615.126c-3.743.083-7.48.102-11.224.078q-2.135.002-4.267.074c-10.807.343-10.807.343-14.24-2.802-2.465-3.08-4.2-6.46-5.83-10.036-1.352-2.861-2.99-5.553-4.603-8.273q-.95-1.664-1.894-3.332a4117 4117 0 0 0-6.114-10.754l-1.054-1.85a2490 2490 0 0 0-10.105-17.555l-1.824-3.15q-1.26-2.175-2.525-4.347l-1.437-2.475c-1.233-2.107-1.233-2.107-3.258-3.986l-1-3a230 230 0 0 0-2.95-5.41l-.893-1.597q-.94-1.677-1.884-3.351-1.413-2.51-2.818-5.023c-1.511-2.697-3.04-5.384-4.574-8.068a448 448 0 0 1-2.569-4.607l-1.578-2.784-1.38-2.476L1080 446c-4.691.766-7.13 3.866-9.984 7.516-1.118 1.542-1.118 1.542-2.016 3.671-1.42 2.576-3.48 3.301-6 4.813-2.47 2.205-4.737 4.584-7 7l-1.934 2.059c-3.24 3.563-5.337 6.419-7.066 10.941l-2.074.734L1042 484c-.107 2.318.023 4.114.375 6.377q.256 2.032.507 4.065l.283 2.178c.542 4.568.811 9.162 1.12 13.751.29 4.07.683 8.08 1.298 12.113l.339 2.436q.317 2.251.734 4.486c.329 2.426.28 4.564.086 7.008l-.081 1.734c-.422 5.146-1.662 9.393-5.661 12.852-8.944 4.316-19.087 5.07-28.877 5.45l-2.044.086c-9.407.3-19.094-.07-27.079-5.536-12.194-15.929-8.238-45.498-7.847-64.256.131-6.492.149-12.976.086-19.468l-.084-8.407c-.165-17.581.025-35.145.337-52.723.26-15.11.214-30.192-.054-45.3-.31-17.514-.432-35.011-.254-52.527l.055-5.595.027-2.78c.05-6.49-.036-12.97-.171-19.459-1.22-63.869-1.22-63.869 24.963-68.184M1126 308v1c2.091.103 4.15.136 6.242.13l2.01.005q3.312.004 6.623-.002 2.288 0 4.574.003 4.801.001 9.604-.006 6.174-.006 12.349.004 4.725.005 9.45 0 2.277 0 4.555.002 3.176.003 6.35-.007l1.928.007A98 98 0 0 0 1194 309v-1a119 119 0 0 0-6.242-.13l-2.01-.005q-3.312-.004-6.623.002-2.288 0-4.574-.003-4.801-.002-9.604.006-6.174.006-12.349-.004-4.725-.005-9.45 0-2.277 0-4.555-.002-3.176-.003-6.35.007l-1.928-.007c-1.439.008-2.878.065-4.315.136m-84-88h1c.117 2.5.164 4.972.172 7.472l.019 2.436q.028 4.08.046 8.16l.04 5.818q.053 7.93.092 15.861l.075 13.212a34376 34376 0 0 1 .169 31.154l.008 1.784q.074 14.32.17 28.642.095 14.683.169 29.367.04 8.252.097 16.505.053 7.757.081 15.515.013 2.856.036 5.712.03 3.882.035 7.763l.028 2.314c-.003 1.763-.109 3.526-.237 5.285l-2 1a156251 156251 0 0 1-.055-84.595v-1.794q-.008-14.405-.022-28.808-.014-14.768-.017-29.534 0-8.3-.012-16.6-.01-7.8-.007-15.602 0-2.873-.006-5.747-.006-3.9-.001-7.803l-.01-2.335c.006-1.728.061-3.455.13-5.182m14 248v3Zm-14 16h1c.103 2.06.136 4.089.13 6.15l.005 1.98q.004 3.264-.002 6.526 0 2.254.003 4.507.001 4.731-.006 9.462-.006 6.084.004 12.168.005 4.656 0 9.31 0 2.245.002 4.489.003 3.129-.007 6.258l.007 1.898A95 95 0 0 1 1043 551h-1a115 115 0 0 1-.13-6.15l-.005-1.98q-.004-3.264.002-6.526 0-2.254-.003-4.507-.001-4.731.006-9.462.006-6.084-.004-12.168-.005-4.656 0-9.31 0-2.245-.002-4.489-.003-3.129.007-6.258l-.007-1.898c.008-1.418.065-2.836.136-4.252m99 68c1.956-.102 3.916-.128 5.875-.13l1.892-.005q3.116-.004 6.233.002l4.305-.003q4.52-.002 9.039.006 5.811.006 11.622-.004 4.448-.005 8.894 0 2.144 0 4.287-.002 2.989-.003 5.978.007l3.445.002 2.43.127v1c-1.956.102-3.916.128-5.875.13l-1.892.005q-3.116.004-6.233-.002l-4.305.003q-4.52.002-9.039-.006-5.811-.006-11.622.004-4.448.005-8.894 0-2.144 0-4.287.002-2.989.003-5.978-.007l-3.445-.002L1141 553z"/><path fill="#fefefe" d="M1829 307c2.269-.736 2.269-.736 5.489-.885l1.768-.1c1.947-.099 3.892-.157 5.84-.206l2.014-.062c3.522-.105 7.043-.176 10.566-.223 2.917-.044 5.82-.148 8.733-.307 18.883-1.012 18.883-1.012 26.59 1.783 4.885 4.407 5.505 10.961 6.464 17.168.875 4.622 2.684 8.8 4.49 13.125q1.052 2.664 2.096 5.331l1.084 2.742c1.972 4.987 3.932 9.979 5.893 14.97l1.234 3.136c4.967 12.633 9.863 25.294 14.755 37.956 3.927 10.164 7.863 20.322 11.93 30.431l1.805 4.507q1.605 4.001 3.242 7.989c2.558 6.318 4.677 12.623 6.355 19.235l.513 2.017c.698 2.905 1.14 5.346 1.117 8.356L1951 476h2c.215-1.79.423-3.58.61-5.373 1.79-12.062 6.89-23.737 11.203-35.065l2.002-5.3c5.985-15.827 12.066-31.618 18.158-47.404 4.579-11.872 9.12-23.76 13.665-35.646q3.17-8.295 6.354-16.586l2.04-5.318q1.465-3.818 2.937-7.632l.887-2.318.814-2.103.709-1.841C2013 310 2013 310 2014 309c1.902-.094 3.808-.117 5.713-.114h1.804c1.975 0 3.95.009 5.924.016l4.099.005q5.403.006 10.806.024 5.51.014 11.02.02 10.816.016 21.634.049c-.715 4.663-2.368 8.785-4.113 13.137l-.973 2.455a3740 3740 0 0 1-3.227 8.096l-2.298 5.782c-2.456 6.179-4.922 12.355-7.389 18.53l-2.41 6.036c-5.19 13-10.392 25.994-15.597 38.988a91703 91703 0 0 0-13.083 32.68l-.697 1.741a18762 18762 0 0 0-22.259 55.875q-4.793 12.077-9.575 24.159c-11.388 28.78-22.714 56.888-39.078 83.26-1.426 2.305-1.426 2.305-2.301 5.261-1.32.692-2.656 1.354-4 2-2.114 1.8-2.114 1.8-4.125 3.875l-2.07 2.055c-1.869 1.967-1.869 1.967-2.895 4.258-1.332 2.653-3.178 2.88-5.91 3.812-1.75 1.01-2.955 1.952-4.332 3.434-1.826 1.714-3.46 2.644-5.73 3.691l-2.098 1.008c-2.597.793-4.745 1.102-7.433 1.336-4.128.389-8.212.905-12.312 1.525-3.651.55-7.31 1.054-10.967 1.563q-3.225.457-6.443.945c-8.315 1.245-16.603 2.197-24.997 2.686l-1.836.11c-8.011.434-16.721.864-23.852-3.298-7.065-8.35-6.567-20.442-5.894-30.751.797-6.268 1.984-12.149 5.894-17.249 10.674-7.142 28.08-3.313 39.96-1.556 4.604.62 8.49.525 13.04-.444v-2c2.311-.369 4.597-.445 6.934-.559L1895 581l1-3c1.672-1.43 1.672-1.43 3.75-2.875 6.651-4.646 10.106-9.053 13.375-16.375l1.045-2.292c5.394-11.23 5.394-11.23 3.882-23.131l-1.18-2.94-.66-1.653c-.73-1.827-1.468-3.652-2.204-5.476l-1.59-3.967a6651 6651 0 0 0-4.37-10.872q-2.344-5.827-4.68-11.657-4.574-11.39-9.156-22.778-3.77-9.367-7.534-18.736a147584 147584 0 0 0-15.46-38.457c-7.455-18.543-14.92-37.082-22.452-55.595q-2.876-7.077-5.747-14.158a4516 4516 0 0 0-5.35-13.126 2528 2528 0 0 1-3.24-7.973 761 761 0 0 0-1.494-3.65c-.678-1.647-1.345-3.3-2.012-4.952l-1.133-2.778c-.856-2.772-1.387-4.697-.79-7.559m1 1v1c1.803.102 3.61.128 5.416.13l1.744.005q2.872.004 5.746-.002l3.969.003q4.166.001 8.333-.006 5.357-.006 10.714.004 4.1.005 8.2 0 1.975 0 3.951.002 2.755.003 5.511-.007l3.176-.002L1889 309v-1a97 97 0 0 0-5.416-.13l-1.744-.005q-2.872-.004-5.746.002l-3.969-.003q-4.166-.001-8.333.006-5.357.006-10.714-.004-4.1-.005-8.2 0-1.975 0-3.951-.002-2.755-.003-5.511.007l-3.176.002zm184-1c1.864-.102 3.733-.128 5.6-.13l1.803-.005q2.97-.004 5.94.002l4.104-.003q4.307-.001 8.615.006 5.539.006 11.078-.004 4.238-.005 8.477 0 2.043 0 4.086-.002 2.85-.003 5.697.007l3.284.002L2075 307v1c-1.864.102-3.733.128-5.6.13l-1.803.005q-2.97.004-5.94-.002l-4.104.003q-4.307.001-8.615-.006a3500 3500 0 0 0-11.078.004q-4.238.005-8.477 0-2.043 0-4.086.002-2.85.003-5.697-.007l-3.284-.002L2014 308zm-66 148 1 4Zm7 1 1 4Zm-6 3 1 4Zm5 1 1 4Zm-4 3 1 4Zm3 1 1 4Zm-2 3 2 1c-.375 2.063-.375 2.063-1 4zm-58 113 2 1Zm-15 3c1.75-.133 1.75-.133 4-.125l2.25-.008 1.75.133v1c-1.75.133-1.75.133-4 .125l-2.25.008L1878 584zm52 39 2 1Zm-18 8 3 1Zm-4 1 4 1Zm-5 1c2.5-.125 2.5-.125 5 0v1c-2.5.125-2.5.125-5 0zm-6 1c3-.125 3-.125 6 0v1c-3 .125-3 .125-6 0zm-9 1c1.497-.101 3-.13 4.5-.125l2.531-.008L1897 634v1c-1.497.101-3 .13-4.5.125l-2.531.008L1888 635z"/><path fill="#fefefe" d="m2188.39 237.167 2.61.833c.228 2.494.063 4.04-.43 6.448q-.341 2.092-.677 4.184l-.389 2.251c-5.103 27.818-5.103 27.818.404 54.707 2.946 3.805 7.57 4.701 12.106 5.466 15.884 1.872 32.465-.087 48.201-2.521l2.177-.337q2.024-.322 4.041-.68c1.79-.294 1.79-.294 4.567-.518 1.225 2.45 1.127 4.046 1.13 6.785l.009 3.014-.006 3.264.003 3.34q0 3.5-.006 7-.006 4.49.004 8.979.004 4.278-.001 8.556l.006 3.263-.01 3.014-.002 2.66C2262 359 2262 359 2261 361c-2.246-.437-4.348-.977-6.54-1.614-29.412-7.944-29.412-7.944-58.54-2.845-4.83 3.16-6.317 6.99-7.693 12.47-3.065 16.22-2.51 32.886-1.852 49.302l.078 2.067c.568 14.938 1.518 29.845 2.982 44.723.095 1.045.19 2.09.29 3.167.83 7.714 1.99 17.457 8.275 22.73l2 1 1 3c2.295 1.135 2.295 1.135 5 2 2.813 1 2.813 1 5 2v2c4.67 1.413 8.773.745 13.539.04 28.204-4.015 28.204-4.015 37.461 1.96 7.07 8.495 7.584 20.21 7.35 30.797-.726 6.785-2.152 12.508-7.35 17.203-10.518 5.286-24.603 3.978-36 3.625l-2.6-.076c-8.948-.286-17.877-.807-26.79-1.652l-2.04-.178c-1.837-.193-1.837-.193-4.57-.719v-2a76 76 0 0 0-6.5-.5 76 76 0 0 1-6.5-.5v-2c-2.292-.625-4.59-.962-6.934-1.34L2168 545l-1-3-2.312-.437c-3.466-.726-4.375-1.9-6.688-4.563l-1.336-1.504c-1.585-1.808-3.124-3.65-4.664-5.496l-1.66-1.89c-12.055-14.39-16.97-31.782-18.658-50.147-.164-1.662-.415-3.315-.682-4.963l-2-1c-.112-1.857-.112-1.857.082-4.334l.202-2.835c.083-1.034.166-2.068.25-3.134q.24-3.367.47-6.734l.126-1.796c.564-8.214.87-16.44 1.193-24.667.27-6.724.631-13.423 1.188-20.13 3.108-24.76 3.108-24.76-3.511-47.37-8.822-4.93-21.011-2.129-30.53-.99-15.76 1.83-15.76 1.83-19.143.167-4.216-3.803-4.671-9.294-4.987-14.626-.06-3.22.175-6.377.489-9.58.171-1.975.248-3.934.3-5.915.26-7.946.752-16.597 5.871-23.056 7.23-3.34 16.527-.457 24 .938 11.067 2.13 11.067 2.13 22.057.648 2.286-1.866 2.75-3.315 3.173-6.203.734-9.906-.67-19.983-1.73-29.82-2.833-26.276-2.833-26.276.5-34.563 6.322-5.62 15.562-5.474 23.604-5.133q2.01.12 4.021.258l2.002.137c9.978.744 19.841 3.417 29.764 3.905M2189 359c-.102 1.389-.126 2.783-.127 4.176l-.009 2.805.007 3.117-.006 3.25q-.004 4.433 0 8.864c.003 3.083 0 6.166 0 9.25q-.004 7.767.005 15.535.006 8.998-.002 17.995-.007 7.707-.003 15.414.003 4.611-.001 9.222c-.004 3.425.001 6.85.007 10.274l-.007 3.117.009 2.805.001 2.458L2189 469h1c.102-1.389.126-2.783.127-4.176l.009-2.805-.007-3.117.006-3.25q.004-4.433 0-8.864c-.003-3.083 0-6.166 0-9.25q.004-7.767-.005-15.535-.006-8.998.002-17.995.007-7.707.003-15.414-.003-4.611.001-9.222c.004-3.425-.001-6.85-.007-10.274l.007-3.117-.009-2.805-.001-2.458L2190 359zm2 110h1c.133 1.531.133 1.531.125 3.5l.008 1.969L2192 476h-1c-.133-1.531-.133-1.531-.125-3.5l-.008-1.969zm-61 4h1a79 79 0 0 1 .125 5l.008 2.813L2131 483h-1a79 79 0 0 1-.125-5l-.008-2.812zm62 4 1 4Zm-61 6h1c.125 3 .125 3 0 6h-1c-.125-3-.125-3 0-6m80 17c3-.125 3-.125 6 0v1c-3 .125-3 .125-6 0zm6 1a54 54 0 0 1 4.04-.13l2.668-.009 2.917.006 2.96-.003q3.106 0 6.214.006 4.78.005 9.56-.007 3.008 0 6.016.004l2.917-.006 2.669.01 2.369.002 1.67.127v1a54 54 0 0 1-4.04.13l-2.668.009-2.917-.006-2.96.003q-3.106 0-6.214-.006c-3.187-.005-6.373 0-9.56.007q-3.008 0-6.016-.004l-2.917.006-2.669-.01-2.369-.002L2217 502zm-65 30 2 2h-2zm13 11 2 1Zm8 4 2 1Zm2 1 2 1Zm6 2 3 1Zm3 1c2.5-.125 2.5-.125 5 0v1c-2.5.125-2.5.125-5 0zm13 2c1.956-.102 3.916-.128 5.875-.13l1.892-.005q3.116-.004 6.233.002l4.305-.003q4.52-.002 9.039.006 5.811.006 11.622-.004 4.448-.005 8.894 0 2.144 0 4.287-.002 2.989-.003 5.978.007l3.445.002 2.43.127v1c-1.956.102-3.916.128-5.875.13l-1.892.005q-3.116.004-6.233-.002l-4.305.003q-4.52.002-9.039-.006-5.811-.006-11.622.004-4.448.005-8.894 0-2.144 0-4.287.002-2.989.003-5.978-.007l-3.445-.002L2197 553z"/><path fill="#fefefe" d="M1259.932 210.678c12.255-1.798 25.69-.81 36.335 6.027 6.716 5.086 8.186 13.672 9.318 21.543 1.785 14.904 1.575 30.03 1.262 45.008a648 648 0 0 0-.086 19.468c.01.922.018 1.843.027 2.793l.057 5.614c.165 17.581-.025 35.145-.337 52.723-.26 15.11-.214 30.192.054 45.3.31 17.514.432 35.011.254 52.527l-.082 8.375c-.05 6.49.036 12.97.171 19.459.937 49.059.937 49.059-7.905 61.485-8.212 7.653-20.273 9.176-31.036 9.055-9.494-.379-19.79-2.368-26.964-9.055-11.862-16.67-8.25-44.973-7.847-64.256.131-6.492.149-12.975.086-19.468-.01-.922-.018-1.843-.027-2.793l-.057-5.614c-.165-17.581.025-35.145.337-52.723.26-15.11.214-30.192-.054-45.3-.31-17.514-.432-35.011-.254-52.527l.082-8.375c.05-6.49-.036-12.97-.171-19.459-1.233-64.583-1.233-64.583 26.837-69.807"/><path fill="#fefefe" d="M1771 308c2.5-.125 2.5-.125 5 0v1c-2.5.125-2.5.125-5 0zm-45 1h1c.189 2.475.31 4.923.387 7.402l.077 2.28q.078 2.394.149 4.79c.074 2.452.165 4.903.256 7.354q.073 2.32.143 4.639l.088 2.238c.044 1.765-.018 3.533-.1 5.297l-2 1q-.037-7.477-.055-14.954-.008-2.546-.02-5.092-.017-3.649-.023-7.298l-.015-2.32c0-1.779.05-3.558.113-5.336m41 0 4 1Zm-73.731-4.487q1.975.023 3.95.053l1.985.013c8.602.087 18.083.243 25.796 4.421 4.243 5.086 4.283 11.659 4 18l-.09 3.272c-.173 2.385-.582 4.536-1.16 6.853l-.488 2.355c-.388 1.848-.82 3.685-1.262 5.52q1.22-1.937 2.438-3.875l1.37-2.18c1.217-1.923 1.217-1.923 2.192-3.945l2-2 1-3 1.813-.812c2.736-1.486 3.646-3.191 5.16-5.848C1743 322 1743 322 1746 321l1-2 2.5-.437 2.5-.563 1-3c4.704-3.562 9.84-4.498 15.605-4.824 3.184-.234 6.231-.918 9.346-1.608 25.328-5.478 25.328-5.478 35.252-1.003 4.714 3.765 5.233 10.212 5.948 15.854.87 11.49 1.346 25.195-4.151 35.581-3.218 3.133-6.9 3.6-11.254 3.727-5.192-.222-10.325-.942-15.433-1.88-6.808-1.188-12.885-.543-19.313 2.153v2c-2.292.625-4.59.962-6.934 1.34L1760 367l-1 3a89 89 0 0 1-5 2l-2 2-2.312 2.313-1.336 1.351c-1.227 1.213-2.506 2.372-3.79 3.524-5.996 6.146-9.085 13.634-11.812 21.625l-.746 2.15c-3.594 11.084-4.31 21.532-3.402 33.08.176 2.546.34 5.093.507 7.64l.134 2c.606 9.214.896 18.442 1.207 27.67.262 7.527.64 15.02 1.243 22.528q.25 3.398.494 6.795.161 2.093.368 4.182c.5 5.053.498 9.967.257 15.037l-.089 3.307c-.312 8.233-.94 16.841-5.723 23.798-8.393 5.653-19.15 5.21-28.886 5.003l-2.043-.008c-22.064-.086-22.064-.086-29.054-6.94-8.051-12.237-6.222-30.757-5.8-44.892.136-4.734.159-9.456.1-14.191l-.026-2.035-.053-4.093c-.155-12.82.045-25.615.365-38.43.268-11.019.237-22.003-.014-33.02-.29-12.769-.4-25.517-.217-38.288q.03-2.04.056-4.078l.028-2.027c.053-4.732-.025-9.453-.15-14.184-.787-32.688-.787-32.688 5.769-42.902 6.454-6.42 17.606-6.393 26.194-6.402M1725 346l1 2Zm39-36 3 1Zm-14 7 2 1Zm32 43c2.416-.103 4.802-.14 7.219-.133l2.22-.003q2.33 0 4.66.006c2.39.005 4.78 0 7.17-.007q2.256 0 4.512.004l2.188-.006c1.677.008 3.355.067 5.031.139v1c-2.416.103-4.802.14-7.219.133l-2.22.003q-2.33 0-4.66-.006c-2.39-.005-4.78 0-7.17.007q-2.256 0-4.512-.004l-2.188.006A133 133 0 0 1 1782 361zm-6 1c2.5-.125 2.5-.125 5 0v1c-2.5.125-2.5.125-5 0zm-4 1 4 1Zm-3 1 3 1Zm-7 3 2 1Zm-2 1 2 1Zm-29 41 1 4Zm-1 4h1c.125 3 .125 3 0 6h-1c-.125-3-.125-3 0-6m-1 6h1c.133 1.531.133 1.531.125 3.5l.008 1.969L1730 425h-1c-.133-1.531-.133-1.531-.125-3.5l-.008-1.969z"/><path fill="#fefefe" d="M2332.964 302.4c10.702-.088 21.724.9 31.036 6.6 9.256 9.482 8.167 26.367 8.039 38.849a773 773 0 0 1-.192 7.988 344 344 0 0 0-.086 14.191c.01.672.018 1.343.027 2.035l.057 4.093c.165 12.82-.025 25.615-.337 38.43-.26 11.02-.214 22.003.054 33.02.31 12.769.432 25.516.254 38.288l-.055 4.078-.027 2.027c-.05 4.733.036 9.453.171 14.184.848 32.366.848 32.366-5.926 42.79-7.116 7.29-19.247 8.345-28.943 8.628-10.702.087-21.724-.9-31.036-6.601-9.256-9.482-8.167-26.367-8.039-38.849q.075-3.995.192-7.988c.131-4.734.149-9.456.086-14.191l-.027-2.035-.057-4.093c-.165-12.82.025-25.615.337-38.43.26-11.02.214-22.003-.054-33.02-.31-12.769-.432-25.516-.254-38.288l.082-6.105c.05-4.733-.036-9.453-.171-14.184-.848-32.366-.848-32.366 5.926-42.79 7.116-7.29 19.247-8.345 28.943-8.628"/><path fill="#9f9f9f" d="M138 381c7.306 3.242 13.987 8.105 20.688 12.438a9712 9712 0 0 0 8.312 5.35q5.626 3.618 11.277 7.196l1.508.956q3.52 2.23 7.046 4.454c4.832 3.063 9.562 6.214 14.169 9.606-4.148 3.519-8.587 6.276-13.25 9.063-8.299 5.014-16.457 10.218-24.575 15.518a4628 4628 0 0 1-11.613 7.544l-2.207 1.436-2.039 1.322-1.798 1.168C144 458 144 458 142 459c-1.897-.95-1.897-.95-4.234-2.473l-2.646-1.705-2.87-1.885-2.97-1.92a2506 2506 0 0 1-6.186-4.012 1258 1258 0 0 0-11.647-7.443 3294 3294 0 0 1-8.193-5.214q-5.198-3.315-10.414-6.602l-4.715-2.996-2.2-1.376-1.98-1.265-1.734-1.094L81 420v-2c1.67-1.29 1.67-1.29 4.04-2.766l2.666-1.677 2.919-1.807q1.494-.935 2.986-1.874a2599 2599 0 0 1 6.24-3.906c4.942-3.088 9.858-6.216 14.774-9.345l2.777-1.765c10.823-6.251 10.823-6.251 20.598-13.86"/><path fill="#9f9f9f" d="M714.545 386.924c2.325 1.72 4.776 3.23 7.225 4.767q1.486.95 2.973 1.904l1.518.973q2.393 1.535 4.785 3.073c4.944 3.176 9.894 6.337 14.898 9.417q2.356 1.452 4.707 2.912a626 626 0 0 0 5.883 3.6l2.63 1.637 2.327 1.421L763 418c-1.227 3.68-2.217 4.037-5.469 6.012l-2.884 1.773-1.552.938c-2.169 1.311-4.326 2.64-6.484 3.97l-3.402 2.091c-6.226 3.825-12.375 7.765-18.522 11.716l-3.046 1.956-2.942 1.888-2.854 1.811a176 176 0 0 0-5.843 3.95l-1.485 1.02a339 339 0 0 0-4.033 2.833C702 459 702 459 699.355 458.158c-2.354-1.47-4.494-3.107-6.65-4.851-3.33-2.551-6.953-4.666-10.518-6.87a2460 2460 0 0 1-4.91-3.097l-2.578-1.63q-4.29-2.72-8.57-5.456l-1.488-.95q-3.586-2.288-7.168-4.584c-4.759-3.039-9.54-5.97-14.473-8.72 3.579-4.033 7.829-6.577 12.375-9.375l5.14-3.207 2.717-1.69a1418 1418 0 0 0 11.103-7.017q2.787-1.77 5.586-3.522c4.418-2.776 8.709-5.608 12.864-8.767l2.263-1.656a86 86 0 0 0 4.06-3.182c6.163-4.454 10.132-.676 15.437 3.34"/><path fill="#fefefe" d="M2328 204c2.511-.102 4.989-.139 7.5-.125l2.168-.012c1.778.004 3.556.065 5.332.137v1c-2.511.102-4.989.139-7.5.125l-2.168.012A138 138 0 0 1 2328 205zm-5 1c2.5-.125 2.5-.125 5 0v1c-2.5.125-2.5.125-5 0zm20 0 4 1Zm-23 1 3 1Zm15.25-.187 2.01.002c5.133.064 9.81.712 14.74 2.185l3.063.688c4.301 1.921 7.817 4.782 10.937 8.312.602 1.965.602 1.965 1 4q1.03 2.095 2.063 4.188c3.358 8.292 3.764 19.52.312 27.875-2.344 4.289-5.252 8.186-8.375 11.937l-2 2.438c-2.638 2.06-4.695 2.173-8 2.562l-3.145 1.012c-4.258 1.246-8.32 1.252-12.73 1.175l-2.41-.028c-15.767-.252-15.767-.252-21.715-5.159l-1-2-2-.875-2-1.125a158 158 0 0 1-1-4 146 146 0 0 0-2.5-4.875c-1.914-3.773-3.221-6.851-3.5-11.125l-.152-1.79c-.442-8.87 2.643-16.133 7.742-23.237 1.534-2.062 1.534-2.062 2.972-4.848 2.096-3.097 4.454-4.697 8.141-5.492q1.723-.25 3.453-.422c1.927-.187 1.927-.187 4.11-.723 3.337-.596 6.605-.68 9.984-.675M2347 206l3 1Zm-29 1 2 1Zm32 0 2 1Zm-52 23h1c.125 2.5.125 2.5 0 5h-1c-.125-2.5-.125-2.5 0-5m-1 5h1c.133 1.75.133 1.75.125 4l.008 2.25L2298 243h-1c-.133-1.75-.133-1.75-.125-4l-.008-2.25zm1 9h1c.125 2.5.125 2.5 0 5h-1c-.125-2.5-.125-2.5 0-5m55 25 2 1Zm-2 1 2 1Zm-31 1 2 1Zm28 0 3 1Zm-26 1 4 1Zm22 0 4 1Zm-18 1c1.31-.103 2.624-.13 3.938-.133l2.46-.004 2.602.012 2.602-.012 2.46.004 2.286.004L2344 273v1c-1.31.103-2.624.13-3.937.133l-2.461.004-2.602-.012-2.602.012-2.46-.004-2.286-.004L2326 274z"/><path fill="#fff" d="M845 149h1c.102 2.84.133 5.655.126 8.496l.004 2.783c.004 3.125 0 6.249-.003 9.373l.005 6.732q.005 7.354 0 14.708-.004 10.935.002 21.871.007 19.526.002 39.05-.004 17.088-.002 34.174v2.285l.001 9.184q.004 43.115-.005 86.23-.007 38.346 0 76.692a292480 292480 0 0 1 .004 95.235v2.28q-.002 17.08.002 34.16.005 19.412-.003 38.823-.004 10.878 0 21.756.003 8.097-.004 16.195-.001 3.295.002 6.59.004 4.443-.005 8.887l.007 2.645c-.006 1.95-.063 3.901-.133 5.851h-1c-.102-2.84-.133-5.655-.126-8.496l-.004-2.783c-.004-3.125 0-6.249.003-9.373l-.005-6.732q-.005-7.354 0-14.708.004-10.935-.002-21.871a62281 62281 0 0 1-.002-39.05q.004-17.088.002-34.174v-2.285l-.001-9.184q-.004-43.115.005-86.23.007-38.346 0-76.692a292480 292480 0 0 1-.004-95.235v-2.28q.002-17.08-.002-34.16-.005-19.412.003-38.823.004-10.878 0-21.756-.003-8.097.004-16.195.001-3.295-.002-6.59-.004-4.443.005-8.887l-.007-2.645c.006-1.95.063-3.901.133-5.851"/><path fill="#fff" d="M1300 219h1c.102 1.726.126 3.456.126 5.185l.004 1.699c.004 1.906 0 3.813-.003 5.72l.005 4.108q.005 5.678-.001 11.356-.003 6.111.004 12.221.005 11.984 0 23.967a37783 37783 0 0 0 0 27.875q.004 26.362-.006 52.723-.005 22.65.001 45.3a109240 109240 0 0 1 .003 60.902q0 9.73.003 19.459.005 11.847-.003 23.693-.005 6.052 0 12.103.004 5.529-.004 11.058-.001 2.011.002 4.022.004 2.712-.005 5.424v3.056L1301 551h-1c-.102-1.726-.126-3.456-.126-5.185l-.004-1.699c-.004-1.906 0-3.813.003-5.72l-.005-4.108q-.005-5.678.001-11.356.003-6.111-.004-12.221-.005-11.984 0-23.967.003-9.736.001-19.468v-2.793l-.001-5.614q-.004-26.362.006-52.723.005-22.65-.001-45.3a109240 109240 0 0 1-.003-60.902q0-9.73-.003-19.459-.005-11.847.003-23.693.005-6.052 0-12.103-.004-5.529.004-11.058.001-2.011-.002-4.022-.004-2.712.005-5.424v-3.056z"/><path fill="#fff" d="M1239 219h1c.102 1.726.126 3.456.126 5.185l.004 1.699c.004 1.906 0 3.813-.003 5.72l.005 4.108q.005 5.678-.001 11.356-.003 6.111.004 12.221.005 11.984 0 23.967a37783 37783 0 0 0 0 27.875q.004 26.362-.006 52.723-.005 22.65.001 45.3a109240 109240 0 0 1 .003 60.902q0 9.73.003 19.459.005 11.847-.003 23.693-.005 6.052 0 12.103.004 5.529-.004 11.058-.001 2.011.002 4.022.004 2.712-.005 5.424v3.056L1240 551h-1c-.102-1.726-.126-3.456-.126-5.185l-.004-1.699c-.004-1.906 0-3.813.003-5.72l-.005-4.108q-.005-5.678.001-11.356.003-6.111-.004-12.221-.005-11.984 0-23.967.003-9.736.001-19.468v-2.793l-.001-5.614q-.004-26.362.006-52.723.005-22.65-.001-45.3a109240 109240 0 0 1-.003-60.902q0-9.73-.003-19.459-.005-11.847.003-23.693.005-6.052 0-12.103-.004-5.529.004-11.058.001-2.011-.002-4.022-.004-2.712.005-5.424v-3.056z"/><path fill="#fff" d="M981 220h1c.102 1.72.126 3.446.126 5.17l.008 3.493-.007 3.903.005 4.096q.005 5.661-.001 11.322-.003 6.092.004 12.184.005 11.947 0 23.895-.003 9.705-.001 19.41v2.783l.001 5.598q.004 26.282-.006 52.564-.005 22.583.001 45.164a108582 108582 0 0 1 .004 57.946v2.772q-.002 9.7.002 19.4.005 11.811-.003 23.622-.005 6.034 0 12.067.004 5.513-.004 11.025-.001 2.004.002 4.009.003 2.704-.005 5.408v3.047L982 551h-1c-.102-1.72-.126-3.446-.126-5.17l-.008-3.493.007-3.903-.005-4.096q-.005-5.661.001-11.322.003-6.092-.004-12.184-.005-11.947 0-23.895.003-9.705.001-19.41v-2.783l-.001-5.598q-.004-26.282.006-52.564.005-22.583-.001-45.164a108582 108582 0 0 1-.004-57.946V300.7q.002-9.7-.002-19.4-.005-11.811.003-23.622.005-6.034 0-12.067-.004-5.513.004-11.025.001-2.004-.002-4.009-.003-2.704.005-5.408v-3.047z"/><path fill="#fff" d="M2304 309h1c.125 1.552.125 1.552.126 3.78l.008 2.554-.007 2.853.005 2.995c.004 3.344 0 6.689-.003 10.033l.006 7.152q.005 8.736 0 17.47-.003 7.095-.001 14.191v2.035l.001 4.093q.004 19.215-.006 38.43-.006 16.51.001 33.02a58041 58041 0 0 1 .003 44.393q0 7.092.003 14.184.005 8.634-.003 17.27-.005 4.41 0 8.822.002 4.77-.006 9.538l.007 2.853-.008 2.555v2.227L2305 551h-1c-.125-1.552-.125-1.552-.126-3.78l-.008-2.554.007-2.853-.005-2.995c-.004-3.344 0-6.689.003-10.033l-.006-7.152q-.005-8.736 0-17.47.003-7.095.001-14.191v-2.035l-.001-4.093q-.004-19.215.006-38.43.006-16.51-.001-33.02a58041 58041 0 0 1-.003-44.393q0-7.092-.003-14.184-.005-8.634.003-17.27.005-4.41 0-8.822-.002-4.77.006-9.538l-.007-2.853.008-2.555v-2.227z"/><path fill="#fff" d="M1667 309h1c.125 1.552.125 1.552.126 3.78l.008 2.554-.007 2.853.005 2.995c.004 3.344 0 6.689-.003 10.033l.006 7.152q.005 8.736 0 17.47-.003 7.095-.001 14.191v2.035l.001 4.093q.004 19.215-.006 38.43-.005 16.51.001 33.02a58041 58041 0 0 1 .003 44.393q0 7.092.003 14.184.005 8.634-.003 17.27-.004 4.41 0 8.822.002 4.77-.006 9.538l.007 2.853-.008 2.555v2.227L1668 551h-1c-.125-1.552-.125-1.552-.126-3.78l-.008-2.554.007-2.853-.005-2.995c-.004-3.344 0-6.689.003-10.033l-.006-7.152q-.005-8.736 0-17.47.003-7.095.001-14.191v-2.035l-.001-4.093q-.004-19.215.006-38.43.005-16.51-.001-33.02a58041 58041 0 0 1-.003-44.393q0-7.092-.003-14.184-.005-8.634.003-17.27.004-4.41 0-8.822-.002-4.77.006-9.538l-.007-2.853.008-2.555v-2.227z"/><path fill="#fff" d="M1604 309h1c.125 1.552.125 1.552.126 3.78l.008 2.554-.007 2.853.005 2.995c.004 3.344 0 6.689-.003 10.033l.006 7.152q.005 8.736 0 17.47-.003 7.095-.001 14.191v2.035l.001 4.093q.004 19.215-.006 38.43-.005 16.51.001 33.02a58041 58041 0 0 1 .003 44.393q0 7.092.003 14.184.005 8.634-.003 17.27-.004 4.41 0 8.822.002 4.77-.006 9.538l.007 2.853-.008 2.555v2.227L1605 551h-1c-.125-1.552-.125-1.552-.126-3.78l-.008-2.554.007-2.853-.005-2.995c-.004-3.344 0-6.689.003-10.033l-.006-7.152q-.005-8.736 0-17.47.003-7.095.001-14.191v-2.035l-.001-4.093q-.004-19.215.006-38.43.005-16.51-.001-33.02a58041 58041 0 0 1-.003-44.393q0-7.092-.003-14.184-.005-8.634.003-17.27.004-4.41 0-8.822-.002-4.77.006-9.538l-.007-2.853.008-2.555v-2.227z"/><path fill="#fff" d="M1728 426h1c.102 1.58.126 3.163.127 4.745l.009 3.188-.007 3.542.006 3.694q.004 5.036 0 10.072c-.003 3.504 0 7.007 0 10.51q.004 8.827-.005 17.655-.007 10.224.002 20.45.007 8.757.003 17.515-.003 5.24.001 10.48.004 4.924-.005 9.849 0 1.815.002 3.628.002 2.463-.006 4.927l-.001 2.793L1729 551h-1c-.102-1.58-.126-3.163-.127-4.745l-.009-3.188.007-3.542-.006-3.694q-.004-5.036 0-10.072c.003-3.504 0-7.007 0-10.51q-.004-8.827.005-17.655.007-10.224-.002-20.45-.007-8.757-.003-17.515.003-5.24-.001-10.48-.004-4.925.005-9.849 0-1.815-.002-3.628-.002-2.463.006-4.927l.001-2.793z"/><path fill="#fff" d="M1241 217a94 94 0 0 1 5.324-.13l1.714-.005q2.825-.004 5.65.002l3.9-.003q4.097-.001 8.192.006 5.266.006 10.533-.004 4.03-.005 8.06 0 1.943 0 3.886-.002 2.708-.003 5.417.007l3.122.002L1299 217v1a94 94 0 0 1-5.324.13l-1.714.005q-2.825.004-5.65-.002l-3.9.003q-4.097.001-8.192-.006-5.266-.006-10.533.004-4.03.005-8.06 0-1.943 0-3.886.002-2.708.003-5.417-.007l-3.122-.002L1241 218z"/><path fill="#fff" d="M2307 552a91 91 0 0 1 5.232-.13l3.459-.009 3.778.006 3.834-.003q4.025-.001 8.05.006 5.175.006 10.351-.004 3.96-.005 7.922 0 1.908 0 3.818-.002 2.661-.003 5.324.007l3.068.002L2364 552v1a91 91 0 0 1-5.232.13l-3.459.009-3.778-.006-3.834.003q-4.025.001-8.05-.006-5.175-.006-10.351.004-3.96.005-7.922 0-1.908 0-3.818.002-2.661.003-5.324-.007l-3.068-.002L2307 553z"/><path fill="#fff" d="M1669 552a91 91 0 0 1 5.232-.13l3.459-.009 3.778.006 3.834-.003q4.025-.001 8.05.006 5.175.006 10.351-.004 3.96-.005 7.922 0 1.908 0 3.818-.002 2.661-.003 5.324.007l3.068.002L1726 552v1a91 91 0 0 1-5.232.13l-3.459.009-3.778-.006-3.834.003q-4.025.001-8.05-.006-5.175-.006-10.351.004-3.96.005-7.922 0-1.908 0-3.818.002-2.661.003-5.324-.007l-3.068-.002L1669 553z"/><path fill="#fff" d="M1241 552a91 91 0 0 1 5.232-.13l3.459-.009 3.778.006 3.834-.003q4.025-.001 8.05.006 5.175.006 10.351-.004 3.96-.005 7.922 0 1.908 0 3.818-.002 2.661-.003 5.324.007l3.068.002L1298 552v1a91 91 0 0 1-5.232.13l-3.459.009-3.778-.006-3.834.003q-4.025.001-8.05-.006-5.175-.006-10.351.004-3.96.005-7.922 0-1.908 0-3.818.002-2.661.003-5.324-.007l-3.068-.002L1241 553z"/><path fill="#fff" d="M984 552a91 91 0 0 1 5.232-.13l3.459-.009 3.778.006 3.834-.003q4.025-.001 8.05.006 5.175.006 10.351-.004 3.96-.005 7.922 0 1.908 0 3.818-.002 2.661-.003 5.324.007l3.068.002L1041 552v1a91 91 0 0 1-5.232.13l-3.459.009-3.778-.006-3.834.003q-4.025.001-8.05-.006-5.175-.006-10.351.004-3.96.005-7.922 0-1.908 0-3.818.002-2.661.003-5.324-.007l-3.068-.002L984 553z"/><path fill="#fff" d="M2307 307a91 91 0 0 1 5.232-.13l3.459-.009 3.778.006 3.834-.003q4.025-.001 8.05.006 5.175.006 10.351-.004 3.96-.005 7.922 0 1.908 0 3.818-.002 2.661-.002 5.324.007l3.068.002L2364 307v1a91 91 0 0 1-5.232.13l-3.459.009-3.778-.006-3.834.003q-4.025.001-8.05-.006-5.175-.006-10.351.004-3.96.005-7.922 0-1.908 0-3.818.002-2.661.002-5.324-.007l-3.068-.002L2307 308z"/><path fill="#fff" d="M984 217a91 91 0 0 1 5.232-.13l3.459-.009 3.778.006 3.834-.003q4.025-.001 8.05.006 5.175.006 10.351-.004 3.96-.005 7.922 0 1.908 0 3.818-.002 2.661-.002 5.324.007l3.068.002L1041 217v1a91 91 0 0 1-5.232.13l-3.459.009-3.778-.006-3.834.003q-4.025.001-8.05-.006-5.175-.006-10.351.004-3.96.005-7.922 0-1.908 0-3.818.002-2.661.002-5.324-.007l-3.068-.002L984 218z"/><path fill="#fff" d="M1548 552a84 84 0 0 1 5.049-.13l3.337-.009 3.645.006 3.7-.003q3.883-.001 7.768.006 4.993.006 9.988-.004 3.82-.005 7.643 0 1.842 0 3.684-.002 2.57-.003 5.137.007l2.961.002L1603 552v1a84 84 0 0 1-5.049.13l-3.337.009-3.645-.006-3.7.003q-3.883.001-7.768-.006-4.993-.006-9.988.004-3.82.005-7.643 0-1.842 0-3.684.002-2.57.003-5.137-.007l-2.961-.002L1548 553z"/><path fill="#fff" d="M1669 307a84 84 0 0 1 5.049-.13l3.337-.009 3.645.006 3.7-.003q3.883-.001 7.768.006 4.993.006 9.988-.004 3.82-.005 7.643 0 1.842 0 3.684-.002 2.57-.002 5.137.007l2.961.002L1724 307v1a84 84 0 0 1-5.049.13l-3.337.009-3.645-.006-3.7.003q-3.883.001-7.768-.006-4.993-.006-9.988.004-3.82.005-7.643 0-1.842 0-3.684.002-2.57.002-5.137-.007l-2.961-.002L1669 308z"/><path fill="#fff" d="M1548 307a84 84 0 0 1 5.049-.13l3.337-.009 3.645.006 3.7-.003q3.883-.001 7.768.006 4.993.006 9.988-.004 3.82-.005 7.643 0 1.842 0 3.684-.002 2.57-.002 5.137.007l2.961.002L1603 307v1a84 84 0 0 1-5.049.13l-3.337.009-3.645-.006-3.7.003q-3.883.001-7.768-.006-4.993-.006-9.988.004-3.82.005-7.643 0-1.842 0-3.684.002-2.57.002-5.137-.007l-2.961-.002L1548 308z"/><path fill="#fff" d="M1833 635a81 81 0 0 1 4.957-.13l3.276-.009 3.58.006 3.632-.003q3.813-.001 7.626.006 4.904.006 9.807-.004 3.752-.005 7.504 0 1.81 0 3.617-.002 2.523-.003 5.044.007l2.907.002 2.05.127v1c-1.65.102-3.304.128-4.957.13l-3.276.009-3.58-.006-3.632.003q-3.813.001-7.626-.006-4.904-.006-9.807.004-3.752.005-7.504 0-1.81 0-3.617.002-2.523.003-5.044-.007l-2.907-.002L1833 636z"/><path fill="#fff" d="M2079 309h1c.102 1.527.128 3.06.13 4.59l.009 3.033-.006 3.315.003 3.363q0 3.53-.006 7.061-.006 4.54.004 9.08.004 4.31-.001 8.62l.006 3.315-.01 3.033-.002 2.692L2080 359h-1a70 70 0 0 1-.13-4.59l-.009-3.033.006-3.315-.003-3.363q0-3.53.006-7.061.006-4.54-.004-9.08-.004-4.31.001-8.62l-.006-3.315.01-3.033.002-2.692z"/><path fill="#fff" d="M1816 309h1c.102 1.527.128 3.06.13 4.59l.009 3.033-.006 3.315.003 3.363q0 3.53-.006 7.061-.006 4.54.004 9.08.004 4.31-.001 8.62l.006 3.315-.01 3.033-.002 2.692L1817 359h-1a70 70 0 0 1-.13-4.59l-.009-3.033.006-3.315-.003-3.363q0-3.53.006-7.061.006-4.54-.004-9.08-.004-4.31.001-8.62l-.006-3.315.01-3.033.002-2.692z"/><path fill="#fff" d="M2131 236a70 70 0 0 1 4.59-.13l3.033-.009 3.314.006 3.364-.003q3.53 0 7.061.006 4.54.006 9.08-.004 4.31-.004 8.62.001l3.315-.006 3.033.01 2.692.002L2181 236v1c-1.527.102-3.06.128-4.59.13l-3.033.009-3.314-.006-3.364.003q-3.53 0-7.061-.006-4.54-.006-9.08.004-4.31.004-8.62-.001l-3.315.006-3.033-.01-2.692-.002L2131 237z"/><path fill="#fff" d="M2263 309h1c.102 1.496.128 2.998.13 4.498l.009 2.973-.006 3.248.003 3.296q0 3.46-.006 6.92-.006 4.449.004 8.899.004 4.223-.001 8.447l.006 3.248-.01 2.973-.002 2.638L2264 358h-1a67 67 0 0 1-.13-4.498l-.009-2.973.006-3.248-.003-3.296q0-3.46.006-6.92.006-4.449-.004-8.899-.004-4.223.001-8.447l-.006-3.248.01-2.973.002-2.638z"/><path fill="#fff" d="M1831 586h1c.102 1.466.128 2.937.13 4.406l.009 2.912-.006 3.182.003 3.229q0 3.39-.006 6.779c-.005 3.476 0 6.953.007 10.43q0 3.281-.004 6.562l.006 3.182-.01 2.912-.002 2.584L1832 634h-1a64 64 0 0 1-.13-4.406l-.009-2.912.006-3.182-.003-3.229q0-3.39.006-6.779c.005-3.476 0-6.953-.007-10.43q0-3.281.004-6.562l-.006-3.182.01-2.912.002-2.584z"/><path fill="#fff" d="M2263 504h1c.102 1.435.128 2.876.13 4.314l.009 2.852-.006 3.115.003 3.162q0 3.318-.006 6.638c-.005 3.404 0 6.808.007 10.212q0 3.213-.004 6.426l.006 3.115-.01 2.852-.002 2.53L2264 551h-1a62 62 0 0 1-.13-4.314l-.009-2.852.006-3.115-.003-3.162q0-3.318.006-6.638c.005-3.404 0-6.808-.007-10.212q0-3.213.004-6.426l-.006-3.115.01-2.852.002-2.53z"/><path fill="#fff" d="M1833 584a54 54 0 0 1 4.04-.13l2.668-.009 2.917.006 2.96-.003q3.105 0 6.214.006c3.187.005 6.373 0 9.56-.007q3.008 0 6.016.004l2.917-.006 2.669.01 2.369.002 1.67.127v1a54 54 0 0 1-4.04.13l-2.668.009-2.917-.006-2.96.003q-3.105 0-6.214-.006c-3.187-.005-6.373 0-9.56.007q-3.008 0-6.016-.004l-2.917.006-2.669-.01-2.369-.002L1833 585z"/><path fill="#fff" d="M1777 307c2.779-.103 5.533-.14 8.313-.133l2.555-.003q2.684 0 5.367.006c2.753.005 5.505 0 8.257-.007q2.598 0 5.196.004l2.518-.006c1.932.008 3.864.067 5.794.139v1c-2.779.103-5.533.14-8.312.133l-2.556.003q-2.684 0-5.367-.006c-2.753-.005-5.505 0-8.257.007q-2.598 0-5.196-.004l-2.518.006A176 176 0 0 1 1777 308z"/><path fill="#fff" d="M1345 420h1c.103 1.455.13 2.916.133 4.375l.004 2.734-.012 2.891.012 2.89-.004 2.735-.004 2.54L1346 440h-1a64 64 0 0 1-.133-4.375l-.004-2.734.012-2.891-.012-2.89.004-2.735.004-2.54z"/><path fill="#565656" d="m84 341 2 2c-.375 2.125-.375 2.125-1 4-2.062-.812-2.062-.812-4-2l1-3z"/><path fill="#fff" d="M1455 299c2.18-.102 4.32-.139 6.5-.125l1.879-.012c1.54.004 3.082.065 4.621.137v1c-2.18.102-4.32.139-6.5.125l-1.879.012A104 104 0 0 1 1455 300z"/><path fill="#fff" d="M844 694h1c.101 1.831.13 3.666.125 5.5l.008 3.094L845 705h-1a95 95 0 0 1-.125-5.5l-.008-3.094z"/><path fill="#a9a9a9" d="m705 381 5 4c-3.062-.312-3.062-.312-6-1z"/><path fill="#fff" d="M844 137h1c.101 1.831.13 3.666.125 5.5l.008 3.094L845 148h-1a95 95 0 0 1-.125-5.5l-.008-3.094z"/><path fill="#545454" d="M87 346c2.125 1.313 2.125 1.313 4 3l-1 2a91 91 0 0 1-4-4z"/><path fill="#fff" d="M1346 441h1c.101 1.497.13 3 .125 4.5l.008 2.531L1347 450h-1c-.101-1.497-.13-3-.125-4.5l-.008-2.531z"/><path fill="#505050" d="m733 326 5 1-2 2c-1.625-1.375-1.625-1.375-3-3"/><path fill="#4e4e4e" d="m111 324 2 2-4 2v-3z"/><path fill="#505050" d="m700 305 5 1-2 2c-1.625-1.375-1.625-1.375-3-3"/><path fill="#505050" d="m505 181 5 1-2 2c-1.625-1.375-1.625-1.375-3-3"/><path fill="#505050" d="m494 174 5 1-2 2c-1.625-1.375-1.625-1.375-3-3"/><path fill="#505050" d="m461 153 5 1-2 2c-1.625-1.375-1.625-1.375-3-3"/><path fill="#4f4f4f" d="m383 151 2 2-4 2v-3z"/><path fill="#515151" d="m450 146 5 1-2 2c-1.625-1.375-1.625-1.375-3-3"/><path fill="#515151" d="m562 216 3 1-2 2-2-2z"/><path fill="#4d4d4d" d="m102 356 3 1-2 2z"/><path fill="#515151" d="m712 312 4 1-2 2z"/><path fill="#fbfbfb" d="m136 380 2 2h-3z"/><path fill="#4f4f4f" d="M87 339h2l-1 3-2-2z"/><path fill="#4f4f4f" d="M98 332h2l-1 3-2-2z"/><path fill="#4f4f4f" d="M120 318h2l-1 3-2-2z"/><path fill="#505050" d="m716 314 3 1-2 2z"/><path fill="#505050" d="M131 311h2l-1 3-2-2z"/><path fill="#505050" d="m694 300 3 1-2 2z"/><path fill="#505050" d="M153 297h2l-1 3-2-2z"/><path fill="#505050" d="m683 293 3 1-2 2z"/><path fill="#5f5f5f" d="m271 222 2 2-2 1-2-2z"/><path fill="#5f5f5f" d="m282 215 2 2-2 1-2-2z"/><path fill="#4f4f4f" d="M315 194h2l-1 3-2-2z"/><path fill="#4f4f4f" d="M326 187h2l-1 3-2-2z"/><path fill="#4f4f4f" d="m499 176 3 1-2 2z"/><path fill="#4f4f4f" d="M348 173h2l-1 3-2-2z"/><path fill="#505050" d="m488 169 3 1-2 2z"/><path fill="#505050" d="M359 166h2l-1 3-2-2z"/><path fill="#505050" d="M370 159h2l-1 3-2-2z"/><path fill="#505050" d="m466 155 3 1-2 2z"/><path fill="#505050" d="m455 148 3 1-2 2z"/><path fill="#505050" d="m433 134 3 1-2 2z"/><path fill="#535353" d="m87 346 2 2h-3z"/><path fill="#fff" d="m2132 490 1 4Z"/><path fill="#fff" d="m2186 235 2 1Z"/></svg>